<?xml version="1.0" standalone="no"?>
<!DOCTYPE svg PUBLIC "-//W3C//DTD SVG 20010904//EN"
 "http://www.w3.org/TR/2001/REC-SVG-20010904/DTD/svg10.dtd">
<svg version="1.0" xmlns="http://www.w3.org/2000/svg"
 width="300.000000pt" height="169.000000pt" viewBox="0 0 300.000000 169.000000"
 preserveAspectRatio="xMidYMid meet">
<metadata>
Created by potrace 1.10, written by Peter Selinger 2001-2011
</metadata>
<g transform="translate(0.000000,169.000000) scale(0.100000,-0.100000)"
fill="#000000" stroke="none">
<path d="M349 1659 c-18 -18 -19 -40 -19 -794 l0 -775 460 0 c427 0 460 -1
469 -17 10 -17 10 -17 11 0 0 16 18 17 230 17 172 0 230 -3 230 -12 0 -9 3 -9
12 0 9 9 127 12 470 12 l458 0 0 775 c0 754 -1 776 -19 794 -19 19 -44 20
-1151 20 -1107 0 -1132 -1 -1151 -20z m1018 -41 c-2 -23 -1 -23 133 -23 134 0
135 0 134 23 l-1 22 487 0 c365 0 489 -3 498 -12 17 -17 17 -1419 0 -1436 -17
-17 -2219 -17 -2236 0 -17 17 -17 1419 0 1436 9 9 134 12 500 12 l488 0 -3
-22z m1270 -1492 c-27 -21 -2247 -21 -2274 0 -15 11 163 13 1137 13 983 0
1152 -2 1137 -13z"/>
<path d="M102 58 l3 -33 105 -3 c58 -1 115 -7 126 -13 12 -6 30 -9 40 -6 13 3
11 5 -8 6 -16 0 -28 4 -28 9 0 4 485 6 1077 4 808 -3 1081 -6 1092 -15 12 -10
14 -9 9 4 -6 15 3 17 67 17 59 0 73 -3 68 -14 -6 -16 8 -19 23 -4 5 5 56 11
114 12 l105 3 3 33 3 34 -98 -7 c-54 -4 -100 -9 -102 -11 -2 -2 22 -5 55 -6
55 -1 53 -2 -26 -9 -111 -9 -2349 -9 -2460 0 -79 7 -81 8 -30 11 l55 3 -60 7
c-33 4 -77 8 -98 9 -37 1 -38 0 -35 -31z"/>
</g>
</svg>
