<svg version="1.1" id="Layer_1" xmlns="http://www.w3.org/2000/svg" xmlns:xlink="http://www.w3.org/1999/xlink" x="0px" y="0px"
	 width="100%" viewBox="0 0 500 500" enable-background="new 0 0 500 500" xml:space="preserve">
<path fill="#000000" opacity="1.000000" stroke="none" 
	d="
M345.000000,501.000000 
	C230.000031,501.000000 115.500053,501.000000 1.000062,501.000000 
	C1.000041,334.333405 1.000041,167.666794 1.000021,1.000151 
	C167.666550,1.000101 334.333099,1.000101 500.999756,1.000050 
	C500.999817,167.666519 500.999817,334.333038 500.999908,500.999786 
	C449.166656,501.000000 397.333344,501.000000 345.000000,501.000000 
M207.470505,293.400604 
	C183.951874,323.328705 160.433243,353.256805 136.914612,383.184875 
	C137.291153,383.530121 137.667679,383.875366 138.044205,384.220612 
	C161.724518,365.179016 185.404816,346.137421 209.754044,326.923126 
	C211.735062,326.037598 213.716080,325.152100 215.661819,325.169495 
	C215.661819,331.084625 215.661819,336.999756 215.661819,342.891998 
	C233.099792,342.891998 249.963730,342.891998 267.307953,342.891998 
	C267.307953,321.833344 267.307953,301.065735 267.961121,280.129211 
	C270.001343,278.451050 272.041534,276.772858 274.699341,274.822357 
	C308.432953,247.800903 342.166565,220.779465 375.900208,193.758026 
	C375.712067,193.403931 375.523956,193.049835 375.335815,192.695740 
	C350.976562,192.695740 326.617340,192.695740 301.532562,192.695740 
	C320.301605,166.398392 338.653687,140.685226 357.555573,114.201736 
	C336.402985,114.201736 316.461304,114.118782 296.523407,114.355721 
	C294.889008,114.375137 292.841064,116.256210 291.725861,117.805397 
	C275.112701,140.883759 258.624451,164.052078 241.434341,187.363785 
	C240.168121,186.203278 238.901901,185.042786 237.459732,183.162827 
	C221.671188,160.941437 205.929581,138.686172 189.981216,116.580086 
	C188.991379,115.208084 186.382370,114.377762 184.517059,114.360886 
	C166.211288,114.195335 147.903488,114.249039 129.596268,114.268417 
	C128.402924,114.269676 127.209824,114.500648 125.359322,114.693138 
	C152.199692,152.204773 178.600433,189.101974 205.117447,226.718613 
	C206.264008,229.198196 207.410568,231.677765 208.123596,234.714142 
	C205.992432,237.712997 203.861252,240.711853 201.208542,244.444580 
	C206.426666,244.444580 210.534576,244.444580 214.951584,245.153885 
	C215.252121,247.102478 215.552643,249.051071 215.661804,251.920120 
	C215.569061,262.468048 215.476303,273.015991 214.854095,283.926361 
	C212.534195,286.912964 210.214310,289.899597 207.470505,293.400604 
z"/>
<path fill="#E2E2E2" opacity="1.000000" stroke="none" 
	d="
M215.383545,283.563904 
	C215.476303,273.015991 215.569061,262.468048 216.225220,251.453278 
	C220.705612,251.032913 224.622574,251.079376 228.599792,251.583221 
	C228.660065,277.884277 228.660065,303.727966 228.660065,329.832794 
	C236.852661,329.832794 245.234177,329.832794 253.633804,329.832794 
	C253.633804,301.306580 253.633804,272.992584 253.633804,244.420029 
	C245.275726,244.420029 237.307159,244.420029 228.860077,244.320312 
	C223.801865,244.295273 219.222168,244.369919 214.642471,244.444580 
	C210.534576,244.444580 206.426666,244.444580 201.208542,244.444580 
	C203.861252,240.711853 205.992432,237.712997 208.624435,234.282822 
	C211.748520,229.620056 214.371765,225.388611 217.331985,221.065155 
	C221.118362,216.286819 224.677246,211.675888 227.975616,206.885574 
	C229.914825,204.069214 231.440033,200.967789 233.492920,198.059219 
	C236.591797,194.482285 239.349243,190.840714 242.106689,187.199142 
	C258.624451,164.052078 275.112701,140.883759 291.725861,117.805397 
	C292.841064,116.256210 294.889008,114.375137 296.523407,114.355721 
	C316.461304,114.118782 336.402985,114.201736 357.555573,114.201736 
	C338.653687,140.685226 320.301605,166.398392 301.532562,192.695740 
	C326.617340,192.695740 350.976562,192.695740 375.335815,192.695740 
	C375.523956,193.049835 375.712067,193.403931 375.900208,193.758026 
	C342.166565,220.779465 308.432953,247.800903 274.117859,274.639740 
	C273.332825,269.609100 273.129272,264.761078 273.090759,259.622253 
	C295.068298,241.808929 316.880798,224.286423 338.693298,206.763901 
	C338.570099,206.419693 338.446899,206.075470 338.323700,205.731262 
	C317.855774,205.731262 297.387848,205.731262 276.190094,205.731262 
	C294.998505,179.357758 313.286804,153.713577 332.152100,127.260277 
	C322.433716,127.260277 313.831055,127.418053 305.239441,127.178818 
	C302.022552,127.089249 300.155396,128.170197 298.323151,130.764450 
	C283.445892,151.828842 268.416962,172.786087 253.431473,193.774033 
	C244.670166,206.044693 235.903885,218.311768 226.473801,231.512848 
	C243.552185,231.512848 259.638245,231.512848 275.724304,231.512848 
	C276.089661,231.872498 276.454987,232.232147 276.820343,232.591797 
	C265.298889,237.968979 266.758942,247.818893 267.061310,257.274048 
	C267.130463,259.436188 267.160858,261.599609 267.133972,264.239868 
	C267.141907,269.910919 267.224945,275.104523 267.307983,280.298126 
	C267.307953,301.065735 267.307953,321.833344 267.307953,342.891998 
	C249.963730,342.891998 233.099792,342.891998 215.661819,342.891998 
	C215.661819,336.999756 215.661819,331.084625 215.825897,324.251007 
	C215.929504,320.846191 215.847092,318.360138 215.812347,315.873444 
	C215.661804,305.103699 215.525223,294.333771 215.383545,283.563904 
z"/>
<path fill="#E0E0E0" opacity="1.000000" stroke="none" 
	d="
M205.001160,225.999176 
	C178.600433,189.101974 152.199692,152.204773 125.359322,114.693138 
	C127.209824,114.500648 128.402924,114.269676 129.596268,114.268417 
	C147.903488,114.249039 166.211288,114.195335 184.517059,114.360886 
	C186.382370,114.377762 188.991379,115.208084 189.981216,116.580086 
	C205.929581,138.686172 221.671188,160.941437 237.183899,183.614868 
	C234.239960,187.073196 231.571869,190.079498 228.669189,192.847473 
	C213.637131,171.914963 198.859619,151.206375 183.996017,130.559753 
	C183.032578,129.221436 181.432312,127.459549 180.084900,127.421249 
	C170.531021,127.149765 160.965851,127.276749 150.717957,127.276749 
	C151.655746,128.745972 152.126556,129.562622 152.671738,130.326172 
	C167.358551,150.895569 182.091309,171.432297 196.727234,192.037796 
	C202.582825,200.281738 208.227875,208.675217 213.636017,217.073318 
	C210.535904,220.097061 207.768539,223.048126 205.001160,225.999176 
z"/>
<path fill="#E1E1E1" opacity="1.000000" stroke="none" 
	d="
M209.085144,327.095825 
	C185.404816,346.137421 161.724518,365.179016 138.044205,384.220612 
	C137.667679,383.875366 137.291153,383.530121 136.914612,383.184875 
	C160.433243,353.256805 183.951874,323.328705 208.066177,293.365784 
	C208.802948,304.585938 208.944046,315.840881 209.085144,327.095825 
z"/>
<path fill="#868686" opacity="1.000000" stroke="none" 
	d="
M209.419601,327.009491 
	C208.944046,315.840881 208.802948,304.585938 208.278137,293.108582 
	C210.214310,289.899597 212.534195,286.912964 215.118820,283.745117 
	C215.525223,294.333771 215.661804,305.103699 215.812347,315.873444 
	C215.847092,318.360138 215.929504,320.846191 215.843536,323.799561 
	C213.716080,325.152100 211.735062,326.037598 209.419601,327.009491 
z"/>
<path fill="#898989" opacity="1.000000" stroke="none" 
	d="
M272.925720,259.913055 
	C273.129272,264.761078 273.332825,269.609100 273.809082,274.775879 
	C272.041534,276.772858 270.001343,278.451050 267.634552,280.213684 
	C267.224945,275.104523 267.141907,269.910919 267.390808,264.069214 
	C269.457062,262.251740 271.191376,261.082397 272.925720,259.913055 
z"/>
<path fill="#868686" opacity="1.000000" stroke="none" 
	d="
M214.797028,244.799225 
	C219.222168,244.369919 223.801865,244.295273 228.726044,244.721237 
	C228.893524,247.189865 228.716522,249.157852 228.539536,251.125854 
	C224.622574,251.079376 220.705612,251.032913 216.320908,250.993042 
	C215.552643,249.051071 215.252121,247.102478 214.797028,244.799225 
z"/>
<path fill="#8B8B8B" opacity="1.000000" stroke="none" 
	d="
M205.059296,226.358887 
	C207.768539,223.048126 210.535904,220.097061 213.967590,217.144806 
	C215.419601,218.481461 216.207306,219.819321 216.995010,221.157166 
	C214.371765,225.388611 211.748520,229.620056 208.841202,234.004425 
	C207.410568,231.677765 206.264008,229.198196 205.059296,226.358887 
z"/>
<path fill="#8C8C8C" opacity="1.000000" stroke="none" 
	d="
M228.903763,193.085785 
	C231.571869,190.079498 234.239960,187.073196 237.271881,183.974609 
	C238.901901,185.042786 240.168121,186.203278 241.770508,187.281464 
	C239.349243,190.840714 236.591797,194.482285 233.145447,198.061417 
	C231.272293,196.361237 230.088028,194.723511 228.903763,193.085785 
z"/>
<path fill="#030303" opacity="1.000000" stroke="none" 
	d="
M273.090759,259.622253 
	C271.191376,261.082397 269.457062,262.251740 267.465942,263.591736 
	C267.160858,261.599609 267.130463,259.436188 267.061310,257.274048 
	C266.758942,247.818893 265.298889,237.968979 276.820343,232.591797 
	C276.454987,232.232147 276.089661,231.872498 275.724304,231.512848 
	C259.638245,231.512848 243.552185,231.512848 226.473801,231.512848 
	C235.903885,218.311768 244.670166,206.044693 253.431473,193.774033 
	C268.416962,172.786087 283.445892,151.828842 298.323151,130.764450 
	C300.155396,128.170197 302.022552,127.089249 305.239441,127.178818 
	C313.831055,127.418053 322.433716,127.260277 332.152100,127.260277 
	C313.286804,153.713577 294.998505,179.357758 276.190094,205.731262 
	C297.387848,205.731262 317.855774,205.731262 338.323700,205.731262 
	C338.446899,206.075470 338.570099,206.419693 338.693298,206.763901 
	C316.880798,224.286423 295.068298,241.808929 273.090759,259.622253 
z"/>
<path fill="#040404" opacity="1.000000" stroke="none" 
	d="
M228.669189,192.847473 
	C230.088028,194.723511 231.272293,196.361237 232.804016,197.996780 
	C231.440033,200.967789 229.914825,204.069214 227.975616,206.885574 
	C224.677246,211.675888 221.118362,216.286819 217.331985,221.065155 
	C216.207306,219.819321 215.419601,218.481461 214.300323,217.072113 
	C208.227875,208.675217 202.582825,200.281738 196.727234,192.037796 
	C182.091309,171.432297 167.358551,150.895569 152.671738,130.326172 
	C152.126556,129.562622 151.655746,128.745972 150.717957,127.276749 
	C160.965851,127.276749 170.531021,127.149765 180.084900,127.421249 
	C181.432312,127.459549 183.032578,129.221436 183.996017,130.559753 
	C198.859619,151.206375 213.637131,171.914963 228.669189,192.847473 
z"/>
<path fill="#010101" opacity="1.000000" stroke="none" 
	d="
M228.599792,251.583221 
	C228.716522,249.157852 228.893524,247.189865 229.204559,244.820953 
	C237.307159,244.420029 245.275726,244.420029 253.633804,244.420029 
	C253.633804,272.992584 253.633804,301.306580 253.633804,329.832794 
	C245.234177,329.832794 236.852661,329.832794 228.660065,329.832794 
	C228.660065,303.727966 228.660065,277.884277 228.599792,251.583221 
z"/>
</svg>