 <svg
    xmlns="http://www.w3.org/2000/svg"
    width="300"
    height="300"
    viewBox="0 0 300.000000 300.000000"
    preserveAspectRatio="xMidYMid meet"
  >
    <g
      transform="translate(0.000000,300.000000) scale(0.100000,-0.100000)"
      fill="#000000"
      stroke="none"
    >
      <path d="M750 2315 c0 -11 121 -181 142 -200 12 -11 -68 108 -110 163 l-24 32 184 0 184 0 25 -37 c14 -21 78 -111 142 -200 64 -89 117 -165 117 -170 0 -4 -9 -19 -19 -32 l-18 -24 -34 50 c-19 27 -83 118 -143 201 l-109 152 -99 0 -100 0 23 -37 c12 -21 28 -45 35 -53 6 -8 82 -113 168 -233 l156 -219 -19 -32 c-13 -21 -17 -36 -11 -47 6 -11 2 -27 -16 -52 l-25 -37 38 1 c31 2 33 3 10 6 l-28 4 22 37 c12 20 39 57 59 82 21 26 59 78 84 118 26 39 51 74 56 77 10 6 -1 23 -182 275 l-134 185 -187 0 c-120 0 -187 -4 -187 -10z m473 -270 c76 -104 145 -200 153 -212 15 -21 13 -26 -32 -88 -41 -59 -48 -65 -57 -48 -6 10 -93 134 -194 275 -100 142 -183 260 -183 263 0 3 39 4 87 3 l88 -3 138 -190z" />
      <path d="M1712 2260 c-25 -36 -85 -119 -132 -185 -106 -147 -137 -194 -120 -177 8 7 78 101 155 210 l142 197 183 3 c180 2 183 2 169 -17 -75 -107 -110 -156 -202 -285 -59 -82 -107 -152 -107 -157 0 -5 98 -9 218 -9 196 -1 215 -2 197 -16 -11 -8 -29 -22 -40 -32 -11 -9 -52 -42 -90 -72 -39 -30 -72 -57 -75 -60 -3 -3 -36 -30 -75 -60 -38 -30 -72 -57 -75 -60 -3 -3 -36 -30 -75 -60 -38 -30 -86 -70 -105 -88 -19 -19 13 4 71 50 310 243 498 394 498 401 1 4 -98 7 -220 7 l-220 0 53 78 c30 42 102 144 161 225 59 82 108 153 110 159 1 8 -54 12 -187 12 l-189 1 -45 -65z" />
      <path d="M1655 2053 c-249 -349 -304 -428 -305 -435 0 -5 64 -8 142 -8 l141 0 -22 -24 c-19 -20 -22 -32 -18 -87 l3 -64 2 61 c2 50 6 64 27 84 14 13 25 27 25 31 0 5 -65 10 -144 11 l-144 3 61 85 c33 47 88 123 122 170 34 47 105 147 159 223 l98 137 90 0 90 0 -35 -47 c-19 -27 -80 -113 -137 -193 -57 -80 -116 -161 -132 -181 -15 -20 -28 -40 -28 -43 0 -3 82 -5 183 -4 l182 2 -173 6 -173 5 160 224 c89 123 161 228 161 232 0 5 -44 9 -97 9 l-98 -1 -140 -196z" />
      <path d="M907 2088 c5 -7 71 -98 146 -203 74 -104 143 -199 152 -210 39 -47 -7 22 -130 195 -73 102 -138 195 -146 208 -8 12 -18 22 -23 22 -4 0 -4 -6 1 -12z" />
      <path d="M1850 1629 c-96 -77 -189 -154 -205 -170 -17 -16 -36 -29 -41 -29 -6 0 -10 -17 -10 -37 0 -21 -1 -129 -2 -240 l-2 -203 -149 0 -150 0 -4 35 -4 35 1 -37 1 -38 155 0 155 0 3 192 c2 183 3 193 23 204 13 6 18 16 15 26 -4 9 -4 30 0 48 5 28 35 56 195 185 165 132 210 171 197 170 -2 0 -82 -64 -178 -141z" />
      <path d="M1443 1543 l67 -4 0 -244 c0 -135 1 -248 3 -252 1 -5 -31 -9 -70 -11 l-73 -3 0 256 0 255 -40 0 c-33 0 -40 -3 -40 -20 0 -16 7 -20 35 -20 l35 0 0 -240 0 -241 83 3 82 3 0 260 0 260 -75 1 -75 1 68 -4z" />
      <path d="M1283 1400 c0 -41 2 -58 4 -37 2 20 2 54 0 75 -2 20 -4 3 -4 -38z" />
      <path d="M1268 1282 c-14 -23 -18 -53 -18 -130 l0 -100 -141 -113 c-231 -185 -249 -200 -249 -193 0 3 36 51 80 107 156 201 283 362 292 375 6 6 8 12 5 12 -3 0 -54 -62 -113 -137 -60 -76 -127 -160 -149 -188 -85 -103 -176 -225 -168 -225 9 1 378 295 442 353 l42 38 -3 115 c-3 115 -3 115 -20 86z" />
    </g>
  </svg>